HIERARCHY
ROOT root
{
	OFFSET 0.000000 0.000000 0.000000
	CHANNELS 6 Xposition Yposition Zposition Zrotation Yrotation Xrotation
	JOINT lhip
	{
		OFFSET 0.058581 -0.082280 -0.017664
		CHANNELS 3 Zrotation Yrotation Xrotation
		JOINT lknee
		{
			OFFSET 0.043451 -0.386469 0.008037
			CHANNELS 3 Zrotation Yrotation Xrotation
			JOINT lankle
			{
				OFFSET -0.014790 -0.426874 -0.037428
				CHANNELS 3 Zrotation Yrotation Xrotation
				JOINT ltoe
				{
					OFFSET 0.041054 -0.060286 0.122042
					CHANNELS 3 Zrotation Yrotation Xrotation
					End Site
					{
						OFFSET 0.000000 0.000000 0.000000
					}
				}
			}
		}
	}
	JOINT rhip
	{
		OFFSET -0.060310 -0.090513 -0.013543
		CHANNELS 3 Zrotation Yrotation Xrotation
		JOINT rknee
		{
			OFFSET -0.043257 -0.383688 -0.004843
			CHANNELS 3 Zrotation Yrotation Xrotation
			JOINT rankle
			{
				OFFSET 0.019056 -0.420046 -0.034562
				CHANNELS 3 Zrotation Yrotation Xrotation
				JOINT rtoe
				{
					OFFSET -0.034840 -0.062106 0.130323
					CHANNELS 3 Zrotation Yrotation Xrotation
					End Site
					{
						OFFSET 0.000000 0.000000 0.000000
					}
				}
			}
		}
	}
	JOINT lowerback
	{
		OFFSET 0.004439 0.124404 -0.038385
		CHANNELS 3 Zrotation Yrotation Xrotation
		JOINT upperback
		{
			OFFSET 0.004488 0.137956 0.026820
			CHANNELS 3 Zrotation Yrotation Xrotation
			JOINT chest
			{
				OFFSET -0.002265 0.056032 0.002855
				CHANNELS 3 Zrotation Yrotation Xrotation
				JOINT lowerneck
				{
					OFFSET -0.013390 0.211636 -0.033468
					CHANNELS 3 Zrotation Yrotation Xrotation
					JOINT upperneck
					{
						OFFSET 0.010113 0.088937 0.050410
						CHANNELS 3 Zrotation Yrotation Xrotation
						End Site
						{
							OFFSET 0.000000 0.000000 0.000000
						}
					}
				}
				JOINT lclavicle
				{
					OFFSET 0.071702 0.114000 -0.018898
					CHANNELS 3 Zrotation Yrotation Xrotation
					JOINT lshoulder
					{
						OFFSET 0.122921 0.045205 -0.019046
						CHANNELS 3 Zrotation Yrotation Xrotation
						JOINT lelbow
						{
							OFFSET 0.255332 -0.015649 -0.022946
							CHANNELS 3 Zrotation Yrotation Xrotation
							JOINT lwrist
							{
								OFFSET 0.265709 0.012698 -0.007375
								CHANNELS 3 Zrotation Yrotation Xrotation
								End Site
								{
									OFFSET 0.000000 0.000000 0.000000
								}
							}
						}
					}
				}
				JOINT rclavicle
				{
					OFFSET -0.082954 0.112472 -0.023707
					CHANNELS 3 Zrotation Yrotation Xrotation
					JOINT rshoulder
					{
						OFFSET -0.113228 0.046853 -0.008472
						CHANNELS 3 Zrotation Yrotation Xrotation
						JOINT relbow
						{
							OFFSET -0.260127 -0.014369 -0.031269
							CHANNELS 3 Zrotation Yrotation Xrotation
							JOINT rwrist
							{
								OFFSET -0.269108 0.006794 -0.006027
								CHANNELS 3 Zrotation Yrotation Xrotation
								End Site
								{
									OFFSET 0.000000 0.000000 0.000000
								}
							}
						}
					}
				}
			}
		}
	}
}
MOTION
Frames: 8
Frame Time: 0.033333
-1.987137 0.665808 0.984587 -27.493050 5.065672 89.308993 3.365627 0.831387 -12.720980 -1.472566 7.857145 26.364552 5.864875 17.257997 -19.676715 0.000000 -0.000000 0.000000 1.326740 -5.221106 -9.653323 -3.976691 -16.789180 29.458964 0.379785 -18.074628 -17.423471 0.000000 -0.000000 0.000000 -3.013190 2.722926 18.068135 0.459218 -2.695209 -2.270375 1.822871 -2.533213 6.048448 3.960569 4.457948 -11.173949 2.644886 3.431464 -4.303044 -17.819643 -0.812951 -1.099789 -55.028915 -13.368863 2.718710 12.032854 -23.284661 0.409806 -3.031868 -2.539108 -10.157004 15.023644 -1.797697 -0.760590 58.027875 0.660224 9.918896 -16.114156 30.583324 1.388190 8.177475 0.368942 -6.406671 
-1.991152 0.663754 0.980660 -22.820947 5.168661 88.537026 4.133384 -0.479782 -13.403977 -2.625303 6.104782 29.444907 6.240000 16.015834 -20.487632 0.000000 -0.000000 0.000000 0.561978 -5.521272 -10.530604 -4.408901 -16.783446 35.668457 -0.047843 -17.259629 -16.086720 0.000000 -0.000000 0.000000 -2.856884 3.631698 19.023881 0.635427 -2.114942 -1.702325 2.041012 -2.445409 5.753815 4.024658 4.933084 -12.254565 2.192164 2.856697 -5.086938 -17.695405 -1.383421 -0.958909 -56.739491 -12.907520 3.593647 10.654203 -22.833386 3.957755 -9.245533 -2.573123 -10.744199 15.142560 -1.130781 -0.477803 58.468809 1.278374 9.614801 -16.835761 30.894952 1.620966 12.304655 0.398367 -6.680952 
-1.994840 0.662653 0.976956 -18.717123 5.367215 88.355812 4.329875 -1.357787 -14.181738 -3.300386 3.898072 31.178667 7.298852 15.844295 -21.327427 0.000000 -0.000000 0.000000 0.313832 -5.232491 -12.074965 -4.176865 -14.887834 40.113433 -0.515719 -16.696203 -16.340249 0.000000 -0.000000 0.000000 -2.754662 4.314498 18.863269 0.707823 -0.790160 -0.629584 2.251512 -1.984374 5.573800 4.225586 4.946620 -13.092880 1.833078 2.564749 -5.923376 -17.874822 -1.184776 -1.261548 -57.369141 -12.641797 3.657183 11.034251 -21.712176 3.926179 -14.881435 -1.909642 -12.338594 15.285992 -0.405350 -0.196285 57.923916 2.724847 9.583178 -17.462016 30.499644 2.341119 17.758176 -0.056214 -4.913348 
-1.998384 0.662157 0.973605 -14.748059 5.658373 88.458964 3.821016 -2.448925 -15.609936 -3.042057 1.075726 33.516681 8.083096 16.617568 -21.789484 0.000000 -0.000000 0.000000 0.430094 -4.167551 -13.237460 -3.203248 -11.909631 41.278775 -0.096136 -15.189657 -17.929814 0.000000 -0.000000 0.000000 -2.324669 4.543258 18.924838 0.666525 0.041693 -0.387353 2.362352 -1.707600 5.828064 4.644491 5.561604 -14.586844 0.912577 2.884821 -6.294938 -18.222251 0.302118 -2.156027 -55.787838 -11.413943 2.496829 11.085762 -21.309289 0.687635 -18.077031 -1.826950 -14.517827 15.542375 0.495845 -0.423668 55.386776 4.995980 10.271006 -16.961631 30.233162 4.653833 22.893565 -1.439294 -2.378713 
-2.003497 0.661638 0.970244 -11.477611 6.298743 88.557599 4.357121 -3.753027 -16.662884 -3.478705 -0.964541 35.167681 7.899972 17.105258 -22.623613 0.000000 -0.000000 0.000000 0.911137 -2.436895 -13.858322 -2.022252 -8.787385 39.874979 0.190649 -14.309509 -19.305567 0.000000 -0.000000 0.000000 -2.033282 4.542914 19.033798 0.943826 0.851294 -0.579843 2.654549 -0.916825 6.191856 4.467832 6.028178 -15.323721 0.219111 3.076832 -7.117191 -18.322681 1.770490 -3.077316 -52.901568 -9.762270 1.093431 11.535844 -21.019675 -3.591254 -14.811984 -2.306817 -16.279747 15.570889 1.207137 -0.942119 51.998123 7.320386 10.596331 -15.798449 29.915482 6.293966 23.047326 -2.311513 -1.131546 
-2.009158 0.660106 0.969379 -8.781214 6.312964 88.204203 4.421772 -4.958509 -16.349833 -3.977864 -2.606016 35.455361 7.654389 17.524404 -22.672202 0.000000 -0.000000 0.000000 0.852465 -0.540435 -13.127012 -0.881762 -5.639940 36.604649 0.867427 -13.064408 -19.938124 0.000000 -0.000000 0.000000 -1.886391 4.594033 19.829222 0.576584 1.275237 -0.695705 2.562894 -0.018648 6.080305 4.395723 6.962930 -15.307895 -0.021271 3.412113 -8.565255 -17.412855 2.777725 -3.684896 -49.547905 -7.571170 -0.681795 14.180920 -20.911840 -8.002282 -8.122817 -1.458572 -14.617509 15.334892 2.815463 -1.124182 49.697873 9.579083 9.849225 -15.314153 28.107034 4.927933 16.991572 -2.273213 -1.124651 
-2.015879 0.660090 0.970548 -5.812820 6.268014 88.277840 4.557978 -6.040091 -16.295107 -4.509248 -4.528400 34.992027 7.299623 17.871803 -22.297306 0.000000 -0.000000 0.000000 1.087685 0.585236 -12.317419 -0.047301 -2.866528 33.381637 1.323789 -12.238467 -19.818365 0.000000 -0.000000 0.000000 -1.979820 5.138911 19.988518 0.481555 1.755982 -0.613746 2.698468 0.595177 6.308839 4.140334 8.085310 -15.882764 -0.526280 3.468021 -9.601305 -16.397617 3.455691 -4.580723 -45.971515 -6.174442 -2.031822 16.851283 -20.866963 -10.939691 0.173025 -0.821800 -11.887479 15.463119 3.978192 -1.599712 47.247803 11.647513 8.499416 -15.823175 25.710889 1.763461 7.658202 -1.464267 -0.482427 
-2.023280 0.660921 0.973884 -2.554649 5.910245 88.832142 4.339100 -6.400504 -16.468929 -4.605051 -6.703565 33.723835 7.142018 17.333189 -21.219395 0.000000 -0.000000 0.000000 1.514729 0.486828 -11.564360 -0.279562 -1.899068 31.445782 1.347137 -13.389618 -18.941533 0.000000 -0.000000 0.000000 -1.981389 5.494763 19.910796 -0.001518 2.091421 -1.009968 2.623300 1.154002 6.410052 3.940292 8.561340 -16.014705 -0.628072 4.220907 -9.986795 -15.935756 3.363631 -4.912143 -41.901410 -5.163978 -3.920420 20.303655 -20.641336 -15.047027 7.302773 -0.451218 -9.505010 15.555613 5.386412 -1.830878 45.377265 12.438389 7.227864 -16.710867 24.027746 -1.936243 -0.853917 0.109233 -0.204705 
